<svg viewBox="0 0 33.7 48.3045" fill="none" xmlns="http://www.w3.org/2000/svg">
<g id="google-maps logo" clip-path="url(#clip0_0_10)">
<path id="Vector" d="M21.9797 0.80325C20.3732 0.292091 18.6207 0 16.8316 0C11.6835 0 7.04658 2.33673 3.94312 6.02438L11.9026 12.706L21.9797 0.80325Z" fill="var(--fill-0, #1A73E8)"/>
<path id="Vector_2" d="M3.94323 6.02441C1.49697 8.94532 0 12.7425 0 16.8318C0 20.0083 0.620693 22.5641 1.67952 24.8643L11.9027 12.706L3.94323 6.02441Z" fill="var(--fill-0, #EA4335)"/>
<path id="Vector_3" d="M16.8681 10.4052C20.4462 10.4052 23.3306 13.2896 23.3306 16.8677C23.3306 18.4377 22.7465 19.8982 21.7972 21.03C21.7972 21.03 26.8722 14.9691 31.8378 9.09082C29.7932 5.14759 26.2516 2.15366 21.9797 0.802734L11.9026 12.7054C13.1075 11.318 14.86 10.4052 16.8681 10.4052Z" fill="var(--fill-0, #4285F4)"/>
<path id="Vector_4" d="M16.8682 23.2944C13.2901 23.2944 10.4057 20.41 10.4057 16.8318C10.4057 15.2619 10.9533 13.8014 11.9026 12.7061L1.67944 24.8643C3.43199 28.7345 6.3529 31.8745 9.34683 35.7812L21.7972 20.9941C20.5923 22.4181 18.8398 23.2944 16.8682 23.2944Z" fill="var(--fill-0, #FBBC04)"/>
<path id="Vector_5" d="M21.5782 39.8699C27.201 31.0707 33.7365 27.0909 33.7365 16.8677C33.7365 14.0564 33.0428 11.4275 31.8379 9.09082L9.34692 35.7806C10.2962 37.022 11.282 38.446 12.2313 39.9064C15.6634 45.2006 14.7141 48.3405 16.9048 48.3405C19.0955 48.3405 18.1462 45.1641 21.5782 39.8699Z" fill="var(--fill-0, #34A853)"/>
</g>
<defs>
<clipPath id="clip0_0_10">
<rect width="33.7" height="48.3045" fill="white"/>
</clipPath>
</defs>
</svg>
