<svg viewBox="0 0 48 47.6655" fill="none" xmlns="http://www.w3.org/2000/svg">
<g id="Group">
<path id="Vector" d="M26.4306 2.3974C20.5052 2.3974 14.9806 5.05954 11.2524 9.78659C8.65549 13.115 7.25779 17.2429 7.25779 21.4369V24.9647C7.25779 26.4957 6.65865 27.9605 5.65974 29.0255C4.8612 29.825 3.86229 30.4242 2.79725 30.6907C3.197 31.6886 4.1288 33.2196 5.79299 34.8847C7.19165 36.3486 8.85585 37.5469 10.6533 38.4125V38.3464C11.7845 36.6151 13.649 35.6162 15.712 35.6162C16.1118 35.6162 16.4444 35.6833 16.8442 35.7494C19.2408 36.2153 21.1044 38.0799 21.5712 40.4094H26.4967C31.6235 40.4094 36.4829 38.2793 40.0116 34.8176C45.4701 29.3591 47.1343 21.1704 44.1386 14.1139C41.1428 6.99024 34.2195 2.3974 26.4306 2.3974Z" fill="var(--fill-0, white)"/>
<path id="Vector_2" d="M26.4306 0C19.84 0 13.6491 2.92864 9.45503 8.18774C6.45928 11.983 4.86123 16.6429 4.86123 21.5023V24.9639C4.86123 26.7614 3.59678 28.4256 1.13308 28.5588C0.53393 28.5588 0.0680315 29.0247 0.00188536 29.6239C-0.0652194 31.2219 1.66608 34.2177 4.06268 36.6143C5.72688 38.2785 7.65758 39.61 9.72057 40.6751C9.05528 44.3371 11.9178 47.6655 15.6459 47.6655H15.7121C18.5755 47.6655 20.9721 45.6686 21.5713 42.9384H26.5639C27.0959 45.6686 29.4925 47.6655 32.4221 47.6655C33.0874 47.6655 33.8198 47.5322 34.4861 47.3328C36.1503 46.7998 37.4147 45.5354 38.0139 43.8702C38.5469 42.3393 38.4798 40.8083 38.0139 39.5439C39.3454 38.6782 40.5437 37.7464 41.6759 36.6143C45.7367 32.6196 48 27.1611 48 21.5023C48 15.7773 45.7367 10.4511 41.6759 6.39029C37.6151 2.19624 32.1556 0 26.4306 0ZM26.4306 2.3966C34.1534 2.3966 41.1429 7.05655 44.1386 14.1792C47.1343 21.3029 45.4701 29.4906 40.0117 34.8839C36.4829 38.4117 31.6236 40.4757 26.4968 40.4757H21.5713C21.1044 38.0791 19.2408 36.2816 16.8442 35.8157C16.4445 35.7486 16.1118 35.6825 15.7121 35.6825C13.7152 35.6825 11.7845 36.6814 10.6533 38.4117V38.4788C8.85588 37.5461 7.25783 36.3478 5.79303 34.9501C4.12883 33.2859 3.19703 31.6878 2.79728 30.756C3.92943 30.4895 4.86123 29.8904 5.65978 29.0918C6.65868 27.9597 7.25783 26.562 7.25783 25.031V21.5023C7.25783 17.3082 8.65552 13.1813 11.2525 9.85194C14.9806 4.99259 20.5053 2.3966 26.4306 2.3966Z" fill="var(--fill-0, black)"/>
<path id="Vector_3" d="M36.0171 14.2471C34.6855 14.2471 33.6205 15.3121 33.6205 16.6437C33.6205 17.9752 34.6855 19.0403 36.0171 19.0403C37.3486 19.0403 38.4137 17.9752 38.4137 16.6437C38.4137 15.3121 37.3486 14.2471 36.0171 14.2471Z" fill="var(--fill-0, black)"/>
<path id="Vector_4" d="M21.6374 14.2471C20.3058 14.2471 19.2408 15.3121 19.2408 16.6437C19.2408 17.9752 20.3058 19.0403 21.6374 19.0403C22.9689 19.0403 24.034 17.9752 24.034 16.6437C24.034 15.3121 22.9689 14.2471 21.6374 14.2471Z" fill="var(--fill-0, black)"/>
<path id="Vector_5" d="M21.2377 23.7667C20.373 23.7667 19.7739 24.6324 20.1727 25.4309C21.7707 28.7603 25.0991 30.8904 28.8273 30.8904C32.5554 30.8904 35.8838 28.7603 37.4819 25.4309C37.8145 24.6324 37.2815 23.7667 36.4168 23.7667C35.9509 23.7667 35.5512 24.0332 35.3518 24.433C34.1535 26.8957 31.6236 28.4938 28.8934 28.4938C26.098 28.4938 23.5682 26.8957 22.436 24.433C22.1705 24.0332 21.7707 23.7667 21.2377 23.7667Z" fill="var(--fill-0, black)"/>
</g>
</svg>
