<svg width="167" height="53" viewBox="0 0 167 53" fill="none" xmlns="http://www.w3.org/2000/svg">
<path d="M45.2219 19.3041H50.119V17.0282H45.2219V14.5967H50.5202L50.5366 12.3207H42.364V23.2502H45.2219V19.3041Z" fill="#285D60"/>
<path d="M58.5045 12.116L56.2115 11.24L54.3444 13.7534L56.2443 13.909L58.5045 12.116Z" fill="#285D60"/>
<path d="M53.3291 22.8C54.0251 23.1602 54.8276 23.3403 55.7448 23.3403C56.662 23.3403 57.4645 23.1602 58.1606 22.8C58.8567 22.4398 59.3971 21.9404 59.782 21.2854C60.1669 20.6387 60.3634 19.8773 60.3634 19.0176C60.3634 18.158 60.1669 17.413 59.782 16.7662C59.3971 16.1195 58.8567 15.6119 58.1606 15.2517C57.4645 14.8914 56.662 14.7113 55.7448 14.7113C54.8276 14.7113 54.0251 14.8914 53.3291 15.2517C52.633 15.6119 52.0925 16.1113 51.7158 16.7662C51.3391 17.4212 51.1426 18.1662 51.1426 19.0176C51.1426 19.8691 51.3309 20.6387 51.7158 21.2854C52.0925 21.9322 52.633 22.4398 53.3291 22.8ZM54.4346 17.5358C54.7703 17.151 55.2043 16.9627 55.7448 16.9627C56.2853 16.9627 56.7275 17.151 57.0633 17.5358C57.399 17.9206 57.571 18.4282 57.571 19.0504C57.571 19.6726 57.4072 20.1966 57.0714 20.5813C56.7357 20.9661 56.2935 21.1544 55.7448 21.1544C55.1962 21.1544 54.7703 20.9661 54.4346 20.5813C54.0988 20.1966 53.935 19.689 53.935 19.0504C53.935 18.4118 54.0988 17.9206 54.4346 17.5358Z" fill="#285D60"/>
<path d="M64.5562 16.2177V14.8178H61.7802V23.2503H64.5562V18.944C64.6217 18.4118 64.851 17.9943 65.2605 17.6914C65.6699 17.3803 66.194 17.2329 66.8492 17.2329C67.0375 17.2329 67.1767 17.2329 67.2668 17.2493V14.7113C66.6772 14.7113 66.1449 14.8423 65.6863 15.1043C65.2195 15.3663 64.8429 15.7347 64.5562 16.2259V16.2177Z" fill="#285D60"/>
<path d="M71.2467 23.373C72.475 23.3485 73.3758 22.8491 73.9409 21.8748V23.2502H76.7169V14.8177H73.9409V18.9767C73.9409 19.5416 73.8016 19.9919 73.5232 20.3439C73.2448 20.6959 72.8599 20.876 72.3686 20.8842C71.9509 20.8842 71.6234 20.745 71.3777 20.4831C71.132 20.2211 71.0092 19.8363 71.0092 19.3615V14.8259H68.2331V20.1556C68.2331 21.1298 68.5033 21.9158 69.052 22.5052C69.6007 23.0947 70.3295 23.3894 71.2467 23.3894V23.373Z" fill="#285D60"/>
<path d="M89.975 17.5931C90.2207 17.8714 90.3517 18.248 90.3517 18.7229V23.242H93.1278V17.9287C93.1278 16.9381 92.8494 16.1603 92.3007 15.5709C91.7521 14.9814 91.015 14.6949 90.1061 14.6949C89.4182 14.6949 88.8204 14.8504 88.3208 15.1697C87.8131 15.489 87.4282 15.9557 87.158 16.5779C86.9533 15.9884 86.6012 15.5218 86.1098 15.1861C85.6185 14.8504 85.037 14.6867 84.3492 14.6867C83.735 14.6867 83.1945 14.8095 82.7359 15.0715C82.2691 15.3253 81.8925 15.7019 81.6058 16.1849V14.8013H78.8461V23.2338H81.6058V19.0749C81.6058 18.51 81.7532 18.0597 82.0399 17.7077C82.3347 17.3556 82.7195 17.1837 83.2109 17.1673C83.6367 17.1673 83.9725 17.3065 84.2263 17.5849C84.472 17.8632 84.603 18.2398 84.603 18.7147V23.2338H87.3791V19.0749C87.3791 18.51 87.5183 18.0597 87.8049 17.7077C88.0916 17.3556 88.4764 17.1837 88.9678 17.1673C89.3936 17.1673 89.7294 17.3065 89.9832 17.5849L89.975 17.5931Z" fill="#285D60"/>
<path d="M101.71 23.3568C102.242 23.3568 102.717 23.2585 103.135 23.0538C103.553 22.8492 103.913 22.5544 104.199 22.1615V23.2503H106.976V11.6822H104.199V15.923C103.896 15.5382 103.528 15.2435 103.102 15.0388C102.668 14.8342 102.185 14.7277 101.644 14.7277C100.875 14.7277 100.203 14.9079 99.6218 15.2599C99.0403 15.6119 98.5899 16.1113 98.2624 16.7581C97.943 17.4049 97.7792 18.1499 97.7792 19.0013C97.7792 19.8527 97.943 20.6223 98.2706 21.2855C98.5981 21.9486 99.0567 22.4562 99.6545 22.8246C100.244 23.193 100.932 23.3731 101.71 23.3731V23.3568ZM101.079 17.5522C101.415 17.1593 101.857 16.971 102.398 16.971C102.938 16.971 103.372 17.1593 103.708 17.544C104.044 17.9288 104.208 18.4364 104.208 19.075C104.208 19.7136 104.044 20.2048 103.708 20.5978C103.372 20.9907 102.938 21.179 102.398 21.179C101.857 21.179 101.415 20.9825 101.079 20.5978C100.744 20.2048 100.572 19.7054 100.572 19.075C100.572 18.4446 100.744 17.9452 101.079 17.5522Z" fill="#285D60"/>
<path d="M115.517 22.8C116.213 22.4398 116.753 21.9404 117.138 21.2854C117.523 20.6387 117.719 19.8773 117.719 19.0176C117.719 18.158 117.523 17.413 117.138 16.7662C116.753 16.1195 116.213 15.6119 115.517 15.2517C114.82 14.8914 114.018 14.7113 113.101 14.7113C112.184 14.7113 111.381 14.8914 110.685 15.2517C109.989 15.6119 109.448 16.1113 109.072 16.7662C108.695 17.4212 108.499 18.1662 108.499 19.0176C108.499 19.8691 108.687 20.6387 109.072 21.2854C109.448 21.9322 109.989 22.4398 110.685 22.8C111.381 23.1602 112.184 23.3403 113.101 23.3403C114.018 23.3403 114.82 23.1602 115.517 22.8ZM111.291 19.0504C111.291 18.4282 111.455 17.9206 111.791 17.5358C112.126 17.151 112.56 16.9627 113.101 16.9627C113.641 16.9627 114.083 17.151 114.419 17.5358C114.755 17.9206 114.927 18.4282 114.927 19.0504C114.927 19.6726 114.763 20.1966 114.427 20.5813C114.092 20.9661 113.649 21.1544 113.101 21.1544C112.552 21.1544 112.126 20.9661 111.791 20.5813C111.455 20.1966 111.291 19.689 111.291 19.0504Z" fill="#285D60"/>
<path d="M46.573 25.1905L41.0126 38.1422H44.4848L45.3938 35.8499H50.9951L51.8795 38.1422H55.4827L50.0451 25.1905H46.573ZM46.4092 33.2628L48.219 28.6454L49.996 33.2628H46.4092Z" fill="#285D60"/>
<path d="M62.5252 29.3741C62.1894 28.9402 61.78 28.6127 61.2805 28.3834C60.7809 28.1542 60.2241 28.0396 59.6099 28.0396C58.7992 28.0396 58.0704 28.2361 57.4316 28.6291C56.7929 29.022 56.2933 29.5787 55.9412 30.291C55.5891 31.0033 55.4171 31.8301 55.4171 32.7635C55.4171 33.6968 55.5973 34.5564 55.9658 35.285C56.3261 36.0218 56.8338 36.5867 57.4808 36.9879C58.1277 37.3891 58.8647 37.5855 59.6918 37.5855C60.9201 37.5855 61.8701 37.1516 62.5416 36.2756V37.3481C62.5416 37.9376 62.3287 38.4042 61.8946 38.7481C61.4606 39.0919 60.8792 39.2639 60.1422 39.2639C59.6017 39.2639 59.0612 39.182 58.5371 39.0019C58.0049 38.83 57.5135 38.5925 57.0631 38.2814L55.9166 40.5574C56.5063 40.9504 57.1941 41.2615 57.9639 41.4989C58.7419 41.7363 59.5444 41.8509 60.3879 41.8509C61.4606 41.8509 62.4024 41.6626 63.2213 41.286C64.0402 40.9094 64.6789 40.3773 65.1375 39.6814C65.5961 38.9855 65.8172 38.175 65.8172 37.2499V28.1378H62.5416V29.3577L62.5252 29.3741ZM61.9683 34.5482C61.5998 34.9821 61.1085 35.195 60.5107 35.195C59.9129 35.195 59.4134 34.9821 59.0449 34.5482C58.6682 34.1143 58.4798 33.5576 58.4798 32.8699C58.4798 32.1822 58.6682 31.6173 59.0449 31.1834C59.4216 30.7495 59.9129 30.5284 60.5107 30.5284C61.1085 30.5284 61.5998 30.7413 61.9683 31.1752C62.3368 31.6091 62.5252 32.174 62.5252 32.8781C62.5252 33.5821 62.3368 34.1307 61.9683 34.5564V34.5482Z" fill="#285D60"/>
<path d="M71.4922 29.8162V28.1543H68.2002V38.1505H71.4922V33.05C71.5659 32.4197 71.8443 31.9284 72.3275 31.56C72.8106 31.1998 73.433 31.0115 74.211 31.0115C74.4321 31.0115 74.5958 31.0115 74.7105 31.0279V28.0151C74.0062 28.0151 73.3839 28.1706 72.8352 28.4736C72.2865 28.7765 71.8443 29.2268 71.4922 29.7998V29.8162Z" fill="#285D60"/>
<path d="M83.6529 28.6782C82.8258 28.2525 81.8759 28.0396 80.7867 28.0396C79.6976 28.0396 78.7477 28.2525 77.9206 28.6782C77.0935 29.1039 76.4547 29.7015 76.0043 30.4711C75.5539 31.2407 75.3328 32.1331 75.3328 33.14C75.3328 34.147 75.5539 35.0558 76.0043 35.8254C76.4547 36.5949 77.0935 37.1926 77.9206 37.6183C78.7477 38.044 79.6976 38.2569 80.7867 38.2569C81.8759 38.2569 82.8258 38.044 83.6529 37.6183C84.48 37.1926 85.1187 36.5949 85.5773 35.8254C86.0359 35.0558 86.257 34.1552 86.257 33.14C86.257 32.1249 86.0277 31.2407 85.5773 30.4711C85.1187 29.7015 84.48 29.1039 83.6529 28.6782ZM82.359 34.9903C81.9659 35.4488 81.4418 35.6698 80.7867 35.6698C80.1316 35.6698 79.6239 35.4406 79.2308 34.9903C78.8377 34.5318 78.6412 33.9342 78.6412 33.181C78.6412 32.4278 78.8377 31.8465 79.2308 31.388C79.6239 30.9296 80.1398 30.7003 80.7867 30.7003C81.4337 30.7003 81.9496 30.9296 82.3508 31.388C82.7521 31.8465 82.9486 32.4442 82.9486 33.181C82.9486 33.9178 82.7521 34.54 82.359 34.9903Z" fill="#285D60"/>
<path d="M94.5362 28.0232C93.8073 28.0232 93.1686 28.1706 92.6035 28.4653C92.0467 28.76 91.5799 29.2021 91.2278 29.7752V28.146H87.9358V38.1423H91.2278V32.8617C91.2851 32.2968 91.498 31.8383 91.8502 31.4945C92.2023 31.1506 92.6445 30.9705 93.1932 30.9623C93.7091 30.9623 94.1267 31.1261 94.4297 31.4535C94.7409 31.781 94.8883 32.2231 94.8883 32.7962V38.1586H98.1639V31.8547C98.1639 30.684 97.8363 29.7507 97.173 29.063C96.5097 28.3753 95.6335 28.0314 94.5362 28.0314V28.0232Z" fill="#285D60"/>
<path d="M104.797 28.0396C103.765 28.0396 102.848 28.2525 102.062 28.6782C101.276 29.1039 100.662 29.7097 100.236 30.4875C99.8018 31.2734 99.5889 32.174 99.5889 33.1974C99.5889 34.2207 99.8018 35.0967 100.228 35.8581C100.654 36.6195 101.268 37.209 102.07 37.6347C102.873 38.0522 103.806 38.2651 104.879 38.2651C105.804 38.2651 106.631 38.1177 107.369 37.8148C108.097 37.5119 108.728 37.0698 109.244 36.4967L107.524 34.7774C107.188 35.1131 106.828 35.3587 106.427 35.5388C106.026 35.7107 105.608 35.8008 105.182 35.8008C104.617 35.8008 104.134 35.6534 103.741 35.3505C103.348 35.0476 103.069 34.6137 102.914 34.0488H109.866C109.874 33.9096 109.883 33.7131 109.883 33.4593C109.883 31.781 109.44 30.4629 108.572 29.5051C107.696 28.5472 106.443 28.0642 104.822 28.0642L104.797 28.0396ZM102.815 32.2722C102.93 31.6828 103.159 31.2161 103.511 30.8723C103.864 30.5284 104.298 30.3565 104.814 30.3565C105.37 30.3565 105.813 30.5284 106.157 30.8805C106.492 31.2325 106.664 31.6992 106.664 32.2722H102.824H102.815Z" fill="#285D60"/>
<path d="M117.842 29.3741C117.506 28.9402 117.097 28.6127 116.597 28.3834C116.098 28.1542 115.541 28.0396 114.927 28.0396C114.116 28.0396 113.387 28.2361 112.749 28.6291C112.11 29.022 111.61 29.5787 111.258 30.291C110.906 31.0033 110.734 31.8301 110.734 32.7635C110.734 33.6968 110.914 34.5564 111.283 35.285C111.643 36.0218 112.151 36.5867 112.798 36.9879C113.445 37.3891 114.182 37.5855 115.009 37.5855C116.237 37.5855 117.187 37.1516 117.859 36.2756V37.3481C117.859 37.9376 117.646 38.4042 117.212 38.7481C116.778 39.0919 116.196 39.2639 115.459 39.2639C114.919 39.2639 114.378 39.182 113.854 39.0019C113.322 38.83 112.831 38.5925 112.372 38.2814L111.225 40.5574C111.815 40.9504 112.503 41.2615 113.273 41.4989C114.051 41.7363 114.853 41.8509 115.697 41.8509C116.769 41.8509 117.711 41.6626 118.53 41.286C119.349 40.9094 119.988 40.3773 120.446 39.6814C120.905 38.9855 121.126 38.175 121.126 37.2499V28.1378H117.85V29.3577L117.842 29.3741ZM117.285 34.5482C116.917 34.9821 116.425 35.195 115.828 35.195C115.23 35.195 114.73 34.9821 114.362 34.5482C113.985 34.1143 113.797 33.5576 113.797 32.8699C113.797 32.1822 113.985 31.6173 114.362 31.1834C114.739 30.7495 115.23 30.5284 115.828 30.5284C116.425 30.5284 116.917 30.7413 117.285 31.1752C117.654 31.6091 117.842 32.174 117.842 32.8781C117.842 33.5821 117.654 34.1307 117.285 34.5564V34.5482Z" fill="#285D60"/>
<path d="M131.018 28.6782C130.191 28.2525 129.241 28.0396 128.152 28.0396C127.063 28.0396 126.113 28.2525 125.286 28.6782C124.459 29.1039 123.82 29.7015 123.37 30.4711C122.919 31.2407 122.698 32.1331 122.698 33.14C122.698 34.147 122.928 35.0558 123.37 35.8254C123.82 36.5949 124.459 37.1926 125.286 37.6183C126.113 38.044 127.063 38.2569 128.152 38.2569C129.241 38.2569 130.191 38.044 131.018 37.6183C131.845 37.1926 132.484 36.5949 132.943 35.8254C133.401 35.0558 133.622 34.1552 133.622 33.14C133.622 32.1249 133.393 31.2407 132.943 30.4711C132.484 29.7015 131.845 29.1039 131.018 28.6782ZM129.724 34.9903C129.331 35.4488 128.807 35.6698 128.152 35.6698C127.497 35.6698 126.989 35.4406 126.596 34.9903C126.203 34.54 126.007 33.9342 126.007 33.181C126.007 32.4278 126.203 31.8465 126.596 31.388C126.989 30.9296 127.505 30.7003 128.152 30.7003C128.799 30.7003 129.315 30.9296 129.716 31.388C130.118 31.8465 130.314 32.4442 130.314 33.181C130.314 33.9178 130.118 34.54 129.724 34.9903Z" fill="#285D60"/>
<path d="M131.428 24.9531L128.709 23.9216L126.49 26.8934L128.75 27.0817L131.428 24.9531Z" fill="#285D60"/>
<path d="M139.797 35.5961C139.207 35.5961 138.724 35.375 138.356 34.9329C137.987 34.4908 137.799 33.9014 137.799 33.1809C137.799 32.4605 137.987 31.8874 138.356 31.4371C138.724 30.9868 139.207 30.7658 139.797 30.7658C140.632 30.7658 141.287 31.1096 141.754 31.7973L144.137 30.4138C143.703 29.6606 143.105 29.0793 142.327 28.6699C141.549 28.2606 140.665 28.0477 139.666 28.0477C138.667 28.0477 137.742 28.2606 136.955 28.6863C136.169 29.112 135.563 29.7179 135.137 30.4956C134.703 31.2816 134.491 32.1821 134.491 33.2055C134.491 34.2289 134.703 35.1049 135.129 35.8662C135.555 36.6276 136.153 37.2253 136.931 37.6428C137.709 38.0603 138.61 38.2732 139.633 38.2732C140.657 38.2732 141.615 38.0603 142.401 37.6428C143.187 37.2253 143.785 36.6358 144.178 35.8662L141.754 34.4827C141.361 35.2359 140.706 35.6124 139.797 35.6124V35.5961Z" fill="#285D60"/>
<path d="M147.306 23.5531C146.799 23.5531 146.389 23.7169 146.062 24.0443C145.734 24.3718 145.57 24.7894 145.57 25.3133C145.57 25.8373 145.734 26.2384 146.062 26.5741C146.389 26.9098 146.807 27.0735 147.306 27.0735C147.806 27.0735 148.224 26.9098 148.551 26.5741C148.879 26.2384 149.043 25.8209 149.043 25.3133C149.043 24.8057 148.879 24.3718 148.551 24.0443C148.224 23.7169 147.806 23.5531 147.306 23.5531Z" fill="#285D60"/>
<path d="M148.969 28.1541H145.693V38.1504H148.969V28.1541Z" fill="#285D60"/>
<path d="M160.908 30.4711C160.45 29.7015 159.811 29.1039 158.984 28.6782C158.157 28.2525 157.199 28.0396 156.118 28.0396C155.037 28.0396 154.079 28.2525 153.252 28.6782C152.424 29.1039 151.786 29.7015 151.335 30.4711C150.885 31.2407 150.664 32.1331 150.664 33.14C150.664 34.147 150.893 35.0558 151.335 35.8254C151.786 36.5949 152.424 37.1926 153.252 37.6183C154.079 38.044 155.029 38.2569 156.118 38.2569C157.207 38.2569 158.157 38.044 158.984 37.6183C159.811 37.1926 160.45 36.5949 160.908 35.8254C161.367 35.0558 161.588 34.1552 161.588 33.14C161.588 32.1249 161.359 31.2407 160.908 30.4711ZM157.69 34.9903C157.297 35.4488 156.773 35.6698 156.118 35.6698C155.463 35.6698 154.955 35.4406 154.562 34.9903C154.169 34.54 153.972 33.9342 153.972 33.181C153.972 32.4278 154.169 31.8465 154.562 31.388C154.955 30.9296 155.471 30.7003 156.118 30.7003C156.765 30.7003 157.281 30.9296 157.682 31.388C158.083 31.8465 158.28 32.4442 158.28 33.181C158.28 33.9178 158.083 34.54 157.69 34.9903Z" fill="#285D60"/>
<path d="M19.8441 11.8459C16.2245 12.5745 13.0881 14.4248 10.746 16.9955C10.7051 16.6107 10.6887 16.2177 10.6887 15.8247V6.9583C14.4229 7.17116 17.7149 9.04596 19.8441 11.8459Z" fill="#285D60"/>
<path d="M21.6375 15.1207V27.4748C16.7732 27.1719 12.7032 23.8725 11.2538 19.4107C13.2273 16.1032 16.3228 13.4915 20.0816 12.1652C20.7285 13.0658 21.2526 14.0646 21.6375 15.1207Z" fill="#285D60"/>
<path d="M27.4598 10.9944C27.4598 12.3535 26.3543 13.4587 24.9949 13.4587C23.6355 13.4587 22.53 12.3535 22.53 10.9944C22.53 9.63541 23.6355 8.53018 24.9949 8.53018C26.3543 8.53018 27.4598 9.63541 27.4598 10.9944Z" fill="#285D60"/>
<path d="M23.9712 24.8466V43.7994C18.5747 43.7257 13.3009 41.0731 10.1236 36.2183C8.58403 33.8686 7.7078 31.2734 7.45394 28.6535C7.42118 28.3097 7.39662 27.9658 7.38024 27.622C7.35567 26.967 7.38024 26.3121 7.42937 25.6653C7.74056 21.8257 9.37018 18.117 12.1626 15.2679C12.5393 14.8832 12.9406 14.5147 13.3582 14.1627C13.5466 14.0072 13.7349 13.8516 13.9315 13.696C13.7186 13.8107 13.5138 13.9335 13.3091 14.0645C13.1535 14.1545 12.9979 14.2609 12.8423 14.3592C12.4902 14.5884 12.1463 14.834 11.8187 15.0878C8.89521 17.331 6.8889 20.3766 5.92259 23.7168C5.80794 24.1098 5.70968 24.511 5.62779 24.9121C5.57046 25.1577 5.52952 25.4115 5.48857 25.6571C4.81707 29.6769 5.59503 33.9423 8.00261 37.61C11.745 43.3245 18.3781 46.0016 24.7164 44.9865C31.2349 44.6099 36.4022 39.2147 36.4022 32.6078V12.4271C29.5398 12.4271 23.9794 17.986 23.9794 24.8466" fill="#7AB61F"/>
<path d="M22.3744 28.9646V39.5339C15.512 39.5339 9.9516 33.975 9.9516 27.1144V22.104C10.0744 21.7847 10.2055 21.4654 10.3447 21.1461C12.3919 25.7472 17.0106 28.9646 22.3744 28.9646Z" fill="#285D60"/>
<path d="M159.801 42.8251C160.915 42.8251 161.356 43.3254 161.356 43.9925C161.356 44.6595 160.866 45.2405 159.79 45.2405C159.269 45.2405 158.72 45.0953 158.354 44.8371L158.698 44.17C158.984 44.3852 159.376 44.5089 159.769 44.5089C160.205 44.5089 160.474 44.326 160.474 44.0194C160.474 43.7235 160.28 43.5298 159.597 43.5298H158.634L158.828 41.4102H161.125V42.1096H159.554L159.495 42.8251H159.801Z" fill="#7AB61F"/>
<path d="M153.25 44.4659H154.869V45.176H152.023V44.6111L153.476 43.2393C153.809 42.9219 153.868 42.7283 153.868 42.5454C153.868 42.2495 153.664 42.0773 153.266 42.0773C152.943 42.0773 152.669 42.2011 152.486 42.4539L151.851 42.0451C152.142 41.6201 152.669 41.3457 153.347 41.3457C154.186 41.3457 154.745 41.7761 154.745 42.4593C154.745 42.8251 154.643 43.1586 154.116 43.6482L153.25 44.4659Z" fill="#7AB61F"/>
<path d="M146.768 45.2405C145.843 45.2405 145.154 44.5358 145.154 43.2931C145.154 42.0504 145.843 41.3457 146.768 41.3457C147.699 41.3457 148.382 42.0504 148.382 43.2931C148.382 44.5358 147.699 45.2405 146.768 45.2405ZM146.768 44.5035C147.204 44.5035 147.505 44.1485 147.505 43.2931C147.505 42.4378 147.204 42.0827 146.768 42.0827C146.338 42.0827 146.037 42.4378 146.037 43.2931C146.037 44.1485 146.338 44.5035 146.768 44.5035Z" fill="#7AB61F"/>
<path d="M139.904 44.4659H141.524V45.176H138.678V44.6112L140.13 43.2394C140.464 42.922 140.523 42.7283 140.523 42.5454C140.523 42.2495 140.319 42.0774 139.921 42.0774C139.598 42.0774 139.323 42.2011 139.141 42.4539L138.506 42.0451C138.796 41.6201 139.323 41.3457 140.001 41.3457C140.84 41.3457 141.4 41.7761 141.4 42.4593C141.4 42.8251 141.298 43.1587 140.771 43.6482L139.904 44.4659Z" fill="#7AB61F"/>
</svg>
