<svg width="1056" height="259" viewBox="0 0 1056 259" fill="none" xmlns="http://www.w3.org/2000/svg">
<path d="M126.324 248.717C125.468 216.593 126.824 183.747 126.267 151.529C126.003 136.293 125.296 115.464 128.706 100.988C131.916 87.5363 138.438 75.0988 147.677 64.8064C164.972 45.4855 185.16 38.1919 210.38 36.8178C209.951 69.5502 210.677 102.617 210.344 135.344C210.209 148.655 211.029 168.576 210.014 181.244C208.094 202.868 197.718 222.862 181.14 236.883C164.714 250.8 150.121 254.765 129.189 257.265C89.9189 261.955 52.4116 248.522 26.4324 217.681C7.19188 194.695 -2.16011 165.026 0.421482 135.165C2.7704 108.21 15.7986 79.0886 36.7049 61.4953C36.8521 63.3868 36.9705 65.9413 37.2409 67.7634C24.358 82.3273 16.0079 109.556 14.8463 128.827C13.0603 158.8 23.2784 188.252 43.245 210.682C65.5971 235.8 93.3696 246.795 126.324 248.717Z" fill="#8D4A2A"/>
<path d="M34.4589 95.914C52.216 130.454 77.2178 146.194 115.75 148.799L115.756 195.945C115.758 201.506 116.101 214.728 115.558 219.784L114.083 219.999C100.963 219.286 90.7652 217.38 78.843 211.586C58.8536 201.849 43.5572 184.566 36.3257 163.543C31.2127 148.677 31.3162 134.764 31.4502 119.294C31.5303 110.023 30.2114 104.591 34.4589 95.914Z" fill="#04223A"/>
<path d="M738.784 142.441C747.864 141.862 753.188 144.651 759.695 150.592L759.839 142.825L782.054 142.795L782.114 185.703C782.126 192.338 782.533 205.362 781.288 211.392C780.349 216.086 778.244 220.468 775.151 224.125C762.178 239.282 729.005 238.897 715.05 226.704C717.634 221.575 720.26 216.465 722.922 211.376C734.502 218.669 750.472 222.772 759.408 209.62C759.851 206.379 759.791 202.04 759.839 198.688C741.691 217.156 712.334 203.123 711.94 177.288C711.659 158.993 718.322 143.702 738.784 142.441ZM745.059 190.885C765.497 189.424 762.914 160.713 748.074 159.295C729.447 158.839 726.098 185.443 745.059 190.885Z" fill="#04223A"/>
<path d="M365.501 142.442C374.765 141.97 379.924 144.616 386.581 150.731L386.659 142.823L408.785 142.733L408.874 185.286C408.886 191.856 409.254 204.847 408.16 210.825C407.386 215.221 405.581 219.371 402.892 222.934C389.925 239.932 357.385 238.697 341.786 226.731C344.348 221.584 346.816 216.444 349.768 211.509C358.337 216.635 374.074 222.277 382.877 213.702C387.133 209.555 386.773 203.988 386.656 198.453C381.503 203.476 376.944 206.417 369.494 207.028C362.192 207.674 354.941 205.328 349.401 200.528C330.909 184.593 335.051 144.437 365.501 142.442ZM371.836 190.92C387.872 189.313 390.857 169.84 381.281 162.126C379.388 160.622 377.14 159.629 374.753 159.241C355.881 159.092 353.1 185.613 371.836 190.92Z" fill="#04223A"/>
<path d="M99.6966 35.1985C102.98 37.2059 110.024 51.1598 110.472 55.0856C111.435 63.5237 111.031 74.6934 111.018 83.2518L111.019 138.68C94.2702 137.519 82.436 132.863 68.7809 123.447C54.0516 112.132 46.8607 101.162 40.3589 84.0734C55.852 59.2882 72.9147 46.0405 99.6966 35.1985Z" fill="#3A6F98"/>
<path d="M278.695 123.195C286.624 123.12 294.553 123.144 302.481 123.267C315.034 150.57 327.185 182.332 339.266 210.409C330.927 210.508 322.586 210.517 314.247 210.437C313.108 206.07 310.447 199.643 308.752 195.25L301.553 195.321L270.87 195.381C269.165 200.279 267.057 205.556 265.24 210.471L241.286 210.474L278.695 123.195ZM278.037 177.479L291.254 177.462L301.795 177.404C300.422 173.741 291.468 149.312 290.069 147.4C285.94 156.448 281.72 168.044 278.037 177.479Z" fill="#04223A"/>
<path d="M827.268 142.462C836.91 141.108 849.955 145.428 856.792 152.367C873.439 169.243 868.259 200.734 844.943 208.768C840.493 210.302 837.257 210.78 832.657 211.465C822.213 211.952 811.357 209.663 803.27 202.519C789.627 190.503 788.693 166.721 800.932 153.404C807.966 145.747 817.153 142.893 827.268 142.462ZM833.01 193.61C842.832 189.369 846.863 179.013 842.473 169.297C840.774 165.51 837.61 162.578 833.704 161.177C831.395 160.348 827.352 160.621 824.875 160.878C820.581 163.116 816.711 166.536 815.67 171.341C812.691 185.113 819.055 194.334 833.01 193.61Z" fill="#04223A"/>
<path d="M1015.78 142.463C1023.91 141.194 1035.79 144.681 1042.32 149.527C1056.91 160.344 1059.26 183.691 1048.5 197.919C1041.39 207.334 1032.24 209.922 1021.21 211.403C1010.75 211.976 1000.1 209.617 991.973 202.49C978.389 190.576 977.414 166.753 989.538 153.475C996.423 145.935 1005.69 142.905 1015.78 142.463ZM1022.33 193.384C1031.99 188.998 1035.3 178.125 1030.83 168.782C1029.1 165.096 1025.91 162.297 1022.03 161.054C1019.77 160.316 1015.82 160.679 1013.39 160.908C995.64 170.596 1003.77 198.051 1022.33 193.384Z" fill="#04223A"/>
<path d="M507.854 142.46C516.416 141.452 527.354 144.562 534.219 149.754C552.169 163.334 550.985 194.537 531.186 205.949C524.503 209.802 519.938 210.526 512.436 211.449C502.126 211.88 491.776 209.548 483.731 202.563C470.059 190.693 469.178 166.82 481.249 153.519C488.358 145.686 497.438 142.923 507.854 142.46ZM513.088 193.711C527.97 188.168 528.186 168.837 514.501 160.862C511.584 160.741 508.4 160.521 505.524 160.838C500.852 163.083 498.097 165.576 496.293 170.513C493.193 178.996 496.652 190.201 505.754 193.228C507.818 193.914 510.925 193.748 513.088 193.711Z" fill="#04223A"/>
<path d="M515.484 61.6861C525.437 48.424 546.78 48.4868 552.648 64.5409C564.234 44.9001 591.575 49.199 592.98 71.9277C593.722 83.9532 593.1 97.7026 593.034 109.903L574.45 109.909C574.51 100.695 579.331 56.4651 558.216 71.7226C552.205 78.2705 554.424 100.601 554.502 109.901L535.517 109.881C535.571 101.801 535.696 93.7027 535.726 85.6227C535.756 78.0194 535.72 74.0679 529.515 69.2015C516.947 69.0586 515.162 76.1094 515.258 87.1057C515.323 94.6606 515.403 102.345 515.396 109.906L496.521 109.875C496.61 90.9053 496.58 71.9349 496.432 52.9657C502.45 52.8084 508.67 52.8682 514.706 52.8527L515.092 53.1128C515.798 55.0198 515.522 59.4389 515.484 61.6861Z" fill="#04223A"/>
<path d="M667.437 31.8593L686.781 31.723L686.752 110.016L667.521 109.966L667.431 103.735C659.309 111.226 653.411 112.083 642.716 109.983C622.995 102.372 618.384 76.0754 631.1 61.0726C635.395 55.9891 641.562 52.8575 648.201 52.3887C656.42 51.7871 661.588 54.6251 667.515 59.7714C667.222 51.0037 667.449 40.7388 667.437 31.8593ZM658.549 95.8321C662.467 94.0041 665.793 91.7001 666.923 87.385C670.105 75.2208 664.363 67.1337 651.844 68.066C637.201 76.4443 642.878 98.6426 658.549 95.8321Z" fill="#04223A"/>
<path d="M670.422 142.452C698.2 143.148 705.85 157.415 706.383 183.263L659.004 183.281C659.716 184.826 660.984 187.337 662.018 188.699C664.495 191.961 668.179 194.088 672.241 194.599C679.436 195.482 684.969 191.97 690.353 187.804L697.644 195.104L702.028 199.422C684.79 217.986 645.964 215.872 638.26 189.098C631.298 164.893 644.164 143.53 670.422 142.452ZM658.005 170.836L672.905 170.89C675.387 170.926 682.188 171.358 684.006 170.363C685.191 168.841 684.903 169.501 684.909 167.424C682.385 161.892 676.649 157.714 670.434 157.843C664.495 159.945 662.455 161.263 659.68 167.106C659.094 168.337 658.531 169.581 658.005 170.836Z" fill="#04223A"/>
<path d="M599.656 142.419C611.954 141.14 624.616 148.099 626.237 160.323C628.247 175.481 627.194 194.975 627.224 210.422L604.602 210.486C604.656 199.9 604.836 189.3 604.842 178.713C604.848 173.729 604.381 167.994 600.553 164.327C598.788 162.635 596.773 162.076 594.416 162.185C588.189 162.475 586.401 163.878 582.405 168.119C579.241 174.555 580.503 202.045 580.551 210.432L557.971 210.505C558.103 188.121 557.612 165.132 558.174 142.839L580.521 142.801L580.497 153.174C580.772 152.831 581.059 152.49 581.341 152.151C586.718 145.722 591.234 143.173 599.656 142.419Z" fill="#04223A"/>
<path d="M333.859 52.7612C343.555 51.9222 352.783 52.4168 360.939 58.3882C366.963 62.8372 370.932 69.5322 371.944 76.9514C374.467 94.1793 363.826 107.753 346.764 110.311C338.644 111.402 330.654 110.751 323.429 106.573C317.105 102.918 312.514 96.8762 310.688 89.8044C305.614 70.7838 315.849 57.6025 333.859 52.7612ZM344.183 95.4906C347.763 93.9323 351.066 91.5786 352.105 87.7193C355.441 75.3392 349.708 67.0757 336.986 68.0714C322.507 76.1453 327.736 98.5804 344.183 95.4906Z" fill="#04223A"/>
<path d="M721.468 52.705C730.955 51.985 739.7 52.4688 747.727 58.2387C753.768 62.6327 757.793 69.2655 758.9 76.6512C761.741 94.4675 750.616 107.812 733.156 110.415C725.26 111.515 716.671 110.394 709.798 106.184C703.56 102.363 699.133 96.1819 697.518 89.0474C693.098 70.2719 703.273 56.7856 721.468 52.705ZM731.188 95.4907C743.336 90.1889 742.81 74.4476 731.78 68.0187C729.262 67.9661 726.445 67.8238 723.962 68.0678C709.272 76.4246 715.188 98.822 731.188 95.4907Z" fill="#04223A"/>
<path d="M906.671 142.478C920.77 142.495 929.485 146.814 937.542 158.388C932.087 161.517 926.661 164.699 921.272 167.935C917.773 163.82 912.629 159.634 906.905 160.661C888.805 163.905 890.725 196.015 911.068 193.302C915.715 192.681 918.599 189.265 921.218 185.714L932.81 192.348C934.461 193.296 936.142 194.346 937.781 195.331C927.756 211.941 905.936 215.7 889.104 207.614C869.461 198.173 866.686 167.497 881.065 152.458C888.165 145.031 896.694 142.765 906.671 142.478Z" fill="#04223A"/>
<path d="M250.321 36.3574C268.304 35.9525 287.796 36.3065 305.895 36.2916L305.873 51.4606C293.954 51.5784 282.034 51.57 270.115 51.4349L270.201 67.9817C281.092 67.8256 292.27 67.9392 303.185 67.9231L303.081 75.3584L303.089 83.5789L270.125 83.6189L270.119 110.217C265.128 109.719 255.746 110.002 250.433 110.011C250.523 85.4601 250.486 60.9087 250.321 36.3574Z" fill="#04223A"/>
<path d="M463.376 53.0285L482.451 52.9412L482.447 77.8998L482.393 110.063L463.453 109.984C463.379 107.19 463.524 104.442 463.637 101.651C462.937 102.535 462.195 103.385 461.415 104.198C449.778 116.229 428.13 112.117 425.663 95.1576C423.824 82.518 424.787 66.0926 424.712 53.0153L444.118 52.9938C444.053 59.7474 442.263 89.3763 447.35 92.1049C468.465 103.428 463.519 63.9608 463.376 53.0285Z" fill="#04223A"/>
<path d="M36.5889 0C60.398 1.82504 80.1188 11.1602 95.7579 29.4064C96.7694 30.5892 97.7677 31.7828 98.7534 32.9865C70.7639 40.5528 58.2561 47.3925 37.2409 67.7634C36.9705 65.9413 36.8521 63.3868 36.7049 61.4953L36.5889 0Z" fill="#3A6F98"/>
<path d="M465.774 142.378L468.012 142.402C469.838 144.411 468.906 158.926 468.846 162.391C462.363 162.412 456.337 162.728 451.488 167.566C448.122 170.976 446.849 175.941 446.892 180.625C446.984 190.591 447.054 200.563 447.081 210.529C441.075 210.552 430.638 210.879 425.001 210.256C424.243 209.112 424.498 207.117 424.473 205.518L424.391 143.151C431.96 143.157 439.528 143.084 447.096 142.93L447.134 153.471C452.698 146.7 456.684 143.299 465.774 142.378Z" fill="#04223A"/>
<path d="M947.931 143.034C955.312 143.154 962.693 143.122 970.074 142.938L970.021 210.488C962.675 210.41 955.109 210.533 947.746 210.56C948.021 190.018 946.777 162.919 947.931 143.034Z" fill="#04223A"/>
<path d="M413.986 52.6607C415.635 52.5142 416.323 52.3582 417.864 52.9274C419.753 55.6859 418.809 65.1472 418.804 69.2589C393.974 70.0297 400.631 90.8138 400.493 110.011C397.464 110.04 383.651 110.49 381.603 109.702L381.317 108.247L381.304 53.0064L400.579 52.989L400.636 61.7267C404.833 56.2947 407.416 54.551 413.986 52.6607Z" fill="#04223A"/>
<path d="M129.921 10.9736C138.94 9.075 147.799 14.818 149.743 23.8254C151.688 32.8323 145.988 41.7177 136.988 43.7072C127.924 45.711 118.959 39.9626 117.001 30.8912C115.042 21.8198 120.837 12.8859 129.921 10.9736Z" fill="#3A6F98"/>
<path d="M954.397 231.97C959.697 232.528 963.094 234.02 965.14 239.374C966.677 243.505 966.504 248.077 964.661 252.08C962.849 256.028 960.642 257.167 956.909 258.54C940.03 258.155 939.186 235.35 954.397 231.97ZM956.521 253.606C961.407 248.789 962.215 236.864 953.326 237.201L953.129 237.21C948.81 242.216 947.979 253.5 956.521 253.606Z" fill="#8D4A2A"/>
<path d="M954.894 112.561C961.198 110.498 967.975 113.928 970.045 120.226C972.12 126.522 968.693 133.305 962.401 135.383C957.376 137.04 951.861 135.219 948.811 130.898C945.766 126.576 945.904 120.77 949.152 116.598C950.623 114.71 952.621 113.305 954.894 112.561Z" fill="#04223A"/>
<path d="M1043.42 232.639C1047.02 232.509 1050.27 232.328 1052.7 235.181L1052.52 236.375C1050.24 237.936 1045.38 237.744 1041.68 238.773C1040.24 240.293 1039.6 240.476 1039.25 242.33C1042.12 244.251 1052.95 238.352 1053.74 251.564C1049.25 264.437 1033.22 258.61 1032.8 246.437C1032.53 238.591 1036.09 234.381 1043.42 232.639ZM1046.14 253.502C1047.79 252.233 1048.16 249.895 1046.99 248.177C1045.81 246.459 1043.5 245.962 1041.71 247.045C1040.48 247.8 1039.75 249.177 1039.84 250.625C1039.93 252.074 1040.81 253.356 1042.13 253.958C1043.44 254.561 1044.99 254.385 1046.14 253.502Z" fill="#8D4A2A"/>
<path d="M833.165 114.454C839.416 116.777 845.637 119.183 851.827 121.671C847.616 124.408 839.613 131.2 835.396 134.57C832.848 136.663 821.836 135.122 817.673 134.843C822.889 128.086 828.051 121.29 833.165 114.454Z" fill="#04223A"/>
<path d="M908.675 232.017C910.757 232.143 913.813 232.448 915.536 233.549C924.693 239.396 912.928 249.565 908.902 253.39L919.926 253.192L920.123 258.306L905.134 258.253C902.412 258.382 901.348 258.842 899.864 256.533C899.942 251.43 913.747 244.924 912.784 238.734C909.997 235.685 906.438 237.89 903.346 239.256C901.503 238.731 901.306 238.557 899.906 237.235C899.446 233.599 905.912 232.527 908.675 232.017Z" fill="#8D4A2A"/>
<path d="M998.349 232.057C1002.63 232.255 1009.05 233.099 1008.83 238.882C1008.59 245.086 1003.01 249.465 998.798 253.399C1003.51 253.155 1005.9 252.657 1010.22 254.443L1010.58 256.563C1006.79 258.92 1001.97 258.336 997.547 258.24C994.252 258.394 992.057 259.251 990.238 256.345C990.519 250.643 1003.03 245.428 1002.79 238.73C1000.28 235.801 996.441 237.637 993.821 239.103C990.424 238.804 991.357 239.393 989.407 237.161C990.585 233.842 995.304 232.661 998.349 232.057Z" fill="#8D4A2A"/>
<path d="M343.986 28.879L359.621 34.9024C354.998 38.6972 350.302 42.4023 345.536 46.0154C343.342 47.8912 334.199 46.5434 331.119 46.2994C335.264 40.3883 339.555 34.5795 343.986 28.879Z" fill="#04223A"/>
</svg>
