<svg width="306" height="96" viewBox="0 0 306 96" fill="none" xmlns="http://www.w3.org/2000/svg">
<path d="M82.8615 35.3528H91.8345V31.1847H82.8615V26.7316H92.5698L92.5998 22.5635H77.6248V42.5796H82.8615V35.3528Z" fill="#F3FAF9"/>
<path d="M107.2 22.1883L102.998 20.584L99.5771 25.187L103.058 25.4718L107.2 22.1883Z" fill="#F3FAF9"/>
<path d="M97.7166 41.7549C98.9921 42.4146 100.463 42.7444 102.143 42.7444C103.824 42.7444 105.294 42.4146 106.57 41.7549C107.845 41.0952 108.835 40.1806 109.541 38.9811C110.246 37.7966 110.606 36.4022 110.606 34.8279C110.606 33.2536 110.246 31.8892 109.541 30.7047C108.835 29.5203 107.845 28.5907 106.57 27.931C105.294 27.2713 103.824 26.9414 102.143 26.9414C100.463 26.9414 98.9921 27.2713 97.7166 27.931C96.4412 28.5907 95.4509 29.5053 94.7606 30.7047C94.0704 31.9042 93.7103 33.2686 93.7103 34.8279C93.7103 36.3872 94.0554 37.7966 94.7606 38.9811C95.4509 40.1656 96.4412 41.0952 97.7166 41.7549ZM99.7423 32.1141C100.358 31.4094 101.153 31.0646 102.143 31.0646C103.133 31.0646 103.944 31.4094 104.559 32.1141C105.174 32.8188 105.489 33.7484 105.489 34.8879C105.489 36.0274 105.189 36.987 104.574 37.6917C103.959 38.3963 103.148 38.7412 102.143 38.7412C101.138 38.7412 100.358 38.3963 99.7423 37.6917C99.1271 36.987 98.827 36.0574 98.827 34.8879C98.827 33.7184 99.1271 32.8188 99.7423 32.1141Z" fill="#F3FAF9"/>
<path d="M118.288 29.7002V27.1363H113.202V42.5795H118.288V34.693C118.409 33.7184 118.829 32.9537 119.579 32.399C120.329 31.8292 121.29 31.5594 122.49 31.5594C122.835 31.5594 123.09 31.5594 123.255 31.5894V26.9414C122.175 26.9414 121.199 27.1813 120.359 27.6611C119.504 28.1409 118.814 28.8156 118.288 29.7152V29.7002Z" fill="#F3FAF9"/>
<path d="M130.548 42.8038C132.798 42.7588 134.449 41.8442 135.484 40.06V42.5789H140.571V27.1357H135.484V34.7524C135.484 35.7869 135.229 36.6116 134.719 37.2563C134.209 37.901 133.504 38.2308 132.603 38.2458C131.838 38.2458 131.238 37.9909 130.788 37.5112C130.338 37.0314 130.112 36.3267 130.112 35.4571V27.1507H125.026V36.9114C125.026 38.6956 125.521 40.135 126.526 41.2145C127.532 42.294 128.867 42.8338 130.548 42.8338V42.8038Z" fill="#F3FAF9"/>
<path d="M164.864 32.2191C165.314 32.7289 165.555 33.4186 165.555 34.2882V42.5646H170.641V32.8339C170.641 31.0197 170.131 29.5953 169.126 28.5158C168.12 27.4362 166.77 26.9115 165.104 26.9115C163.844 26.9115 162.749 27.1964 161.833 27.7811C160.903 28.3658 160.198 29.2205 159.703 30.36C159.327 29.2804 158.682 28.4258 157.782 27.8111C156.882 27.1964 155.816 26.8965 154.556 26.8965C153.43 26.8965 152.44 27.1214 151.6 27.6012C150.745 28.066 150.054 28.7557 149.529 29.6403V27.1064H144.472V42.5496H149.529V34.9329C149.529 33.8984 149.799 33.0738 150.324 32.429C150.865 31.7843 151.57 31.4695 152.47 31.4395C153.25 31.4395 153.866 31.6944 154.331 32.2041C154.781 32.7139 155.021 33.4036 155.021 34.2732V42.5496H160.108V34.9329C160.108 33.8984 160.363 33.0738 160.888 32.429C161.413 31.7843 162.118 31.4695 163.019 31.4395C163.799 31.4395 164.414 31.6944 164.879 32.2041L164.864 32.2191Z" fill="#F3FAF9"/>
<path d="M186.367 42.7741C187.342 42.7741 188.212 42.5942 188.977 42.2193C189.743 41.8445 190.403 41.3048 190.928 40.5851V42.5792H196.015V21.3936H190.928V29.1601C190.373 28.4554 189.698 27.9157 188.917 27.5408C188.122 27.166 187.237 26.9711 186.247 26.9711C184.836 26.9711 183.606 27.3009 182.54 27.9457C181.475 28.5904 180.65 29.505 180.049 30.6894C179.464 31.8739 179.164 33.2383 179.164 34.7976C179.164 36.3569 179.464 37.7663 180.064 38.9808C180.665 40.1952 181.505 41.1248 182.6 41.7995C183.681 42.4742 184.941 42.8041 186.367 42.8041V42.7741ZM185.211 32.1438C185.826 31.4241 186.637 31.0793 187.627 31.0793C188.617 31.0793 189.413 31.4241 190.028 32.1288C190.643 32.8335 190.943 33.7631 190.943 34.9326C190.943 36.1021 190.643 37.0017 190.028 37.7213C189.413 38.441 188.617 38.7859 187.627 38.7859C186.637 38.7859 185.826 38.426 185.211 37.7213C184.596 37.0017 184.281 36.0871 184.281 34.9326C184.281 33.7781 184.596 32.8635 185.211 32.1438Z" fill="#F3FAF9"/>
<path d="M211.665 41.7549C212.94 41.0952 213.931 40.1806 214.636 38.9811C215.341 37.7966 215.701 36.4022 215.701 34.8279C215.701 33.2536 215.341 31.8892 214.636 30.7047C213.931 29.5203 212.94 28.5907 211.665 27.931C210.389 27.2713 208.919 26.9414 207.238 26.9414C205.558 26.9414 204.087 27.2713 202.812 27.931C201.536 28.5907 200.546 29.5053 199.856 30.7047C199.166 31.9042 198.806 33.2686 198.806 34.8279C198.806 36.3872 199.151 37.7966 199.856 38.9811C200.546 40.1656 201.536 41.0952 202.812 41.7549C204.087 42.4146 205.558 42.7444 207.238 42.7444C208.919 42.7444 210.389 42.4146 211.665 41.7549ZM203.922 34.8879C203.922 33.7484 204.222 32.8188 204.838 32.1141C205.453 31.4094 206.248 31.0646 207.238 31.0646C208.229 31.0646 209.039 31.4094 209.654 32.1141C210.269 32.8188 210.585 33.7484 210.585 34.8879C210.585 36.0274 210.284 36.987 209.669 37.6917C209.054 38.3963 208.244 38.7412 207.238 38.7412C206.233 38.7412 205.453 38.3963 204.838 37.6917C204.222 36.987 203.922 36.0574 203.922 34.8879Z" fill="#F3FAF9"/>
<path d="M85.3374 46.1328L75.1489 69.8523H81.5111L83.1766 65.6542H93.4401L95.0606 69.8523H101.663L91.6995 46.1328H85.3374ZM85.0373 60.9163L88.3534 52.46L91.6095 60.9163H85.0373Z" fill="#F3FAF9"/>
<path d="M114.567 53.7945C113.952 52.9999 113.202 52.4001 112.286 51.9803C111.371 51.5605 110.351 51.3506 109.225 51.3506C107.74 51.3506 106.404 51.7104 105.234 52.4301C104.064 53.1498 103.148 54.1693 102.503 55.4738C101.858 56.7782 101.543 58.2925 101.543 60.0018C101.543 61.711 101.873 63.2853 102.548 64.6197C103.208 65.9691 104.139 67.0037 105.324 67.7383C106.51 68.473 107.86 68.8329 109.375 68.8329C111.626 68.8329 113.367 68.0382 114.597 66.4339V68.398C114.597 69.4776 114.207 70.3322 113.412 70.9619C112.617 71.5916 111.551 71.9065 110.201 71.9065C109.21 71.9065 108.22 71.7566 107.26 71.4267C106.284 71.1119 105.384 70.677 104.559 70.1073L102.458 74.2755C103.539 74.9951 104.799 75.5649 106.209 75.9997C107.635 76.4345 109.105 76.6444 110.651 76.6444C112.617 76.6444 114.342 76.2996 115.843 75.6099C117.343 74.9202 118.514 73.9456 119.354 72.6712C120.194 71.3967 120.599 69.9124 120.599 68.2181V51.5305H114.597V53.7645L114.567 53.7945ZM113.547 63.2703C112.872 64.065 111.971 64.4548 110.876 64.4548C109.781 64.4548 108.865 64.065 108.19 63.2703C107.5 62.4757 107.155 61.4561 107.155 60.1967C107.155 58.9372 107.5 57.9027 108.19 57.108C108.88 56.3134 109.781 55.9086 110.876 55.9086C111.971 55.9086 112.872 56.2984 113.547 57.093C114.222 57.8877 114.567 58.9222 114.567 60.2117C114.567 61.5011 114.222 62.5057 113.547 63.2853V63.2703Z" fill="#F3FAF9"/>
<path d="M130.998 54.6042V51.5606H124.966V69.8675H130.998V60.5266C131.133 59.3721 131.643 58.4725 132.528 57.7978C133.413 57.1381 134.554 56.7932 135.979 56.7932C136.384 56.7932 136.685 56.7932 136.895 56.8232V51.3057C135.604 51.3057 134.464 51.5905 133.459 52.1453C132.453 52.7001 131.643 53.5247 130.998 54.5742V54.6042Z" fill="#F3FAF9"/>
<path d="M153.28 52.5201C151.765 51.7404 150.024 51.3506 148.028 51.3506C146.033 51.3506 144.292 51.7404 142.777 52.5201C141.261 53.2997 140.091 54.3942 139.266 55.8036C138.44 57.213 138.035 58.8473 138.035 60.6915C138.035 62.5356 138.44 64.1999 139.266 65.6093C140.091 67.0187 141.261 68.1132 142.777 68.8928C144.292 69.6725 146.033 70.0623 148.028 70.0623C150.024 70.0623 151.765 69.6725 153.28 68.8928C154.796 68.1132 155.966 67.0187 156.806 65.6093C157.647 64.1999 158.052 62.5506 158.052 60.6915C158.052 58.8323 157.632 57.213 156.806 55.8036C155.966 54.3942 154.796 53.2997 153.28 52.5201ZM150.909 64.08C150.189 64.9196 149.229 65.3244 148.028 65.3244C146.828 65.3244 145.898 64.9046 145.178 64.08C144.457 63.2403 144.097 62.1458 144.097 60.7664C144.097 59.387 144.457 58.3225 145.178 57.4829C145.898 56.6432 146.843 56.2234 148.028 56.2234C149.214 56.2234 150.159 56.6432 150.894 57.4829C151.63 58.3225 151.99 59.417 151.99 60.7664C151.99 62.1158 151.63 63.2553 150.909 64.08Z" fill="#F3FAF9"/>
<path d="M173.222 51.3203C171.886 51.3203 170.716 51.5902 169.681 52.13C168.66 52.6697 167.805 53.4794 167.16 54.5289V51.5452H161.128V69.8521H167.16V60.1814C167.265 59.1469 167.655 58.3072 168.3 57.6775C168.945 57.0478 169.756 56.7179 170.761 56.7029C171.706 56.7029 172.472 57.0028 173.027 57.6025C173.597 58.2023 173.867 59.0119 173.867 60.0615V69.8821H179.869V58.3372C179.869 56.1932 179.269 54.4839 178.054 53.2245C176.838 51.965 175.233 51.3353 173.222 51.3353V51.3203Z" fill="#F3FAF9"/>
<path d="M192.023 51.3506C190.133 51.3506 188.452 51.7404 187.012 52.5201C185.571 53.2997 184.446 54.4092 183.666 55.8336C182.87 57.273 182.48 58.9222 182.48 60.7964C182.48 62.6706 182.87 64.2749 183.65 65.6693C184.431 67.0636 185.556 68.1432 187.027 68.9228C188.497 69.6875 190.208 70.0773 192.173 70.0773C193.869 70.0773 195.384 69.8074 196.735 69.2527C198.07 68.6979 199.226 67.8883 200.171 66.8387L197.02 63.6901C196.405 64.3049 195.745 64.7547 195.009 65.0845C194.274 65.3994 193.509 65.5643 192.729 65.5643C191.693 65.5643 190.808 65.2944 190.088 64.7397C189.367 64.1849 188.857 63.3903 188.572 62.3557H201.311C201.326 62.1008 201.341 61.741 201.341 61.2762C201.341 58.2026 200.531 55.7886 198.941 54.0344C197.335 52.2802 195.039 51.3956 192.068 51.3956L192.023 51.3506ZM188.392 59.1022C188.602 58.0226 189.022 57.168 189.668 56.5383C190.313 55.9086 191.108 55.5937 192.053 55.5937C193.074 55.5937 193.884 55.9086 194.514 56.5533C195.129 57.198 195.444 58.0526 195.444 59.1022H188.407H188.392Z" fill="#F3FAF9"/>
<path d="M215.926 53.7945C215.311 52.9999 214.561 52.4001 213.646 51.9803C212.73 51.5605 211.71 51.3506 210.585 51.3506C209.099 51.3506 207.764 51.7104 206.593 52.4301C205.423 53.1498 204.508 54.1693 203.862 55.4738C203.217 56.7782 202.902 58.2925 202.902 60.0018C202.902 61.711 203.232 63.2853 203.907 64.6197C204.568 65.9691 205.498 67.0037 206.683 67.7383C207.869 68.473 209.219 68.8329 210.735 68.8329C212.985 68.8329 214.726 68.0382 215.956 66.4339V68.398C215.956 69.4776 215.566 70.3322 214.771 70.9619C213.976 71.5916 212.91 71.9065 211.56 71.9065C210.57 71.9065 209.579 71.7566 208.619 71.4267C207.644 71.1119 206.743 70.677 205.903 70.1073L203.802 74.2755C204.883 74.9951 206.143 75.5649 207.554 75.9997C208.979 76.4345 210.45 76.6444 211.995 76.6444C213.961 76.6444 215.686 76.2996 217.187 75.6099C218.687 74.9202 219.858 73.9456 220.698 72.6712C221.538 71.3967 221.944 69.9124 221.944 68.2181V51.5305H215.941V53.7645L215.926 53.7945ZM214.906 63.2703C214.231 64.065 213.331 64.4548 212.235 64.4548C211.14 64.4548 210.225 64.065 209.549 63.2703C208.859 62.4757 208.514 61.4561 208.514 60.1967C208.514 58.9372 208.859 57.9027 209.549 57.108C210.24 56.3134 211.14 55.9086 212.235 55.9086C213.331 55.9086 214.231 56.2984 214.906 57.093C215.581 57.8877 215.926 58.9222 215.926 60.2117C215.926 61.5011 215.581 62.5057 214.906 63.2853V63.2703Z" fill="#F3FAF9"/>
<path d="M240.07 52.5201C238.554 51.7404 236.813 51.3506 234.818 51.3506C232.822 51.3506 231.082 51.7404 229.566 52.5201C228.05 53.2997 226.88 54.3942 226.055 55.8036C225.23 57.213 224.824 58.8473 224.824 60.6915C224.824 62.5356 225.245 64.1999 226.055 65.6093C226.88 67.0187 228.05 68.1132 229.566 68.8928C231.082 69.6725 232.822 70.0623 234.818 70.0623C236.813 70.0623 238.554 69.6725 240.07 68.8928C241.585 68.1132 242.755 67.0187 243.596 65.6093C244.436 64.1999 244.841 62.5506 244.841 60.6915C244.841 58.8323 244.421 57.213 243.596 55.8036C242.755 54.3942 241.585 53.2997 240.07 52.5201ZM237.699 64.08C236.979 64.9196 236.018 65.3244 234.818 65.3244C233.617 65.3244 232.687 64.9046 231.967 64.08C231.247 63.2553 230.886 62.1458 230.886 60.7664C230.886 59.387 231.247 58.3225 231.967 57.4829C232.687 56.6432 233.632 56.2234 234.818 56.2234C236.003 56.2234 236.949 56.6432 237.684 57.4829C238.419 58.3225 238.779 59.417 238.779 60.7664C238.779 62.1158 238.419 63.2553 237.699 64.08Z" fill="#F3FAF9"/>
<path d="M240.82 45.6978L235.838 43.8086L231.772 49.2512L235.913 49.596L240.82 45.6978Z" fill="#F3FAF9"/>
<path d="M256.155 65.1891C255.075 65.1891 254.189 64.7843 253.514 63.9747C252.839 63.165 252.494 62.0855 252.494 60.7661C252.494 59.4467 252.839 58.3971 253.514 57.5725C254.189 56.7479 255.075 56.343 256.155 56.343C257.686 56.343 258.886 56.9728 259.741 58.2322L264.108 55.6983C263.312 54.3189 262.217 53.2544 260.792 52.5047C259.366 51.7551 257.746 51.3652 255.915 51.3652C254.084 51.3652 252.389 51.7551 250.948 52.5347C249.508 53.3144 248.397 54.4239 247.617 55.8483C246.822 57.2876 246.432 58.9369 246.432 60.8111C246.432 62.6852 246.822 64.2895 247.602 65.6839C248.382 67.0783 249.478 68.1728 250.903 68.9375C252.329 69.7021 253.979 70.092 255.855 70.092C257.731 70.092 259.486 69.7021 260.927 68.9375C262.367 68.1728 263.463 67.0933 264.183 65.6839L259.741 63.15C259.021 64.5294 257.821 65.2191 256.155 65.2191V65.1891Z" fill="#F3FAF9"/>
<path d="M269.915 43.1338C268.984 43.1338 268.234 43.4337 267.634 44.0334C267.034 44.6331 266.734 45.3978 266.734 46.3574C266.734 47.3169 267.034 48.0516 267.634 48.6663C268.234 49.2811 268.999 49.5809 269.915 49.5809C270.83 49.5809 271.595 49.2811 272.195 48.6663C272.796 48.0516 273.096 47.287 273.096 46.3574C273.096 45.4278 272.796 44.6331 272.195 44.0334C271.595 43.4337 270.83 43.1338 269.915 43.1338Z" fill="#F3FAF9"/>
<path d="M272.961 51.5605H266.958V69.8675H272.961V51.5605Z" fill="#F3FAF9"/>
<path d="M294.838 55.8036C293.998 54.3942 292.827 53.2997 291.312 52.5201C289.796 51.7404 288.041 51.3506 286.06 51.3506C284.079 51.3506 282.324 51.7404 280.808 52.5201C279.293 53.2997 278.122 54.3942 277.297 55.8036C276.472 57.213 276.067 58.8473 276.067 60.6915C276.067 62.5356 276.487 64.1999 277.297 65.6093C278.122 67.0187 279.293 68.1132 280.808 68.8928C282.324 69.6725 284.064 70.0623 286.06 70.0623C288.056 70.0623 289.796 69.6725 291.312 68.8928C292.827 68.1132 293.998 67.0187 294.838 65.6093C295.678 64.1999 296.083 62.5506 296.083 60.6915C296.083 58.8323 295.663 57.213 294.838 55.8036ZM288.941 64.08C288.221 64.9196 287.26 65.3244 286.06 65.3244C284.86 65.3244 283.929 64.9046 283.209 64.08C282.489 63.2553 282.129 62.1458 282.129 60.7664C282.129 59.387 282.489 58.3225 283.209 57.4829C283.929 56.6432 284.875 56.2234 286.06 56.2234C287.245 56.2234 288.191 56.6432 288.926 57.4829C289.661 58.3225 290.021 59.417 290.021 60.7664C290.021 62.1158 289.661 63.2553 288.941 64.08Z" fill="#F3FAF9"/>
<path d="M36.3607 21.6942C29.7285 23.0286 23.9816 26.4171 19.6901 31.125C19.6151 30.4204 19.5851 29.7007 19.5851 28.981V12.7432C26.4274 13.133 32.4594 16.5665 36.3607 21.6942Z" fill="#F3FAF9"/>
<path d="M39.6469 27.6919V50.3169C30.7339 49.7622 23.2764 43.7198 20.6205 35.5484C24.2367 29.4911 29.9086 24.7082 36.7959 22.2793C37.9813 23.9286 38.9417 25.7578 39.6469 27.6919Z" fill="#F3FAF9"/>
<path d="M50.3155 20.1351C50.3155 22.624 48.2898 24.6481 45.7989 24.6481C43.3081 24.6481 41.2824 22.624 41.2824 20.1351C41.2824 17.6462 43.3081 15.6221 45.7989 15.6221C48.2898 15.6221 50.3155 17.6462 50.3155 20.1351Z" fill="#F3FAF9"/>
<path d="M43.9232 45.5037V80.2134C34.0348 80.0785 24.3716 75.2206 18.5496 66.3295C15.7287 62.0264 14.1231 57.2735 13.658 52.4757C13.5979 51.8459 13.5529 51.2162 13.5229 50.5865C13.4779 49.387 13.5229 48.1876 13.6129 47.0031C14.1831 39.9712 17.1691 33.1792 22.2859 27.9615C22.9761 27.2568 23.7113 26.5821 24.4766 25.9374C24.8217 25.6525 25.1668 25.3676 25.527 25.0828C25.1368 25.2927 24.7617 25.5176 24.3866 25.7575C24.1015 25.9224 23.8164 26.1173 23.5313 26.2972C22.8861 26.717 22.2559 27.1668 21.6557 27.6316C16.2988 31.7398 12.6226 37.3174 10.852 43.4346C10.6419 44.1543 10.4619 44.889 10.3118 45.6237C10.2068 46.0735 10.1318 46.5383 10.0567 46.9881C8.82633 54.3498 10.2518 62.1614 14.6633 68.8784C21.5206 79.3438 33.6747 84.2466 45.2886 82.3874C57.2326 81.6977 66.7008 71.8171 66.7008 59.7175V22.7588C54.1266 22.7588 43.9382 32.9393 43.9382 45.5037" fill="#7AB61F"/>
<path d="M40.9972 53.0452V72.4017C28.4229 72.4017 18.2345 62.2212 18.2345 49.6567V40.4808C18.4596 39.896 18.6997 39.3113 18.9547 38.7266C22.706 47.1528 31.1689 53.0452 40.9972 53.0452Z" fill="#F3FAF9"/>
<path d="M292.81 78.429C294.85 78.429 295.659 79.3452 295.659 80.5669C295.659 81.7886 294.762 82.8526 292.79 82.8526C291.834 82.8526 290.828 82.5866 290.158 82.1137L290.789 80.892C291.312 81.2861 292.031 81.5127 292.751 81.5127C293.549 81.5127 294.042 81.1777 294.042 80.6162C294.042 80.0743 293.687 79.7196 292.435 79.7196H290.671L291.026 75.8379H295.235V77.1187H292.356L292.248 78.429H292.81Z" fill="#7AB61F"/>
<path d="M280.805 81.434H283.772V82.7344H278.558V81.7L281.219 79.1877C281.83 78.6064 281.939 78.2517 281.939 77.9168C281.939 77.3749 281.564 77.0596 280.835 77.0596C280.243 77.0596 279.741 77.2862 279.406 77.7493L278.242 77.0005C278.775 76.2222 279.741 75.7197 280.983 75.7197C282.52 75.7197 283.546 76.5079 283.546 77.7591C283.546 78.4291 283.358 79.0399 282.392 79.9364L280.805 81.434Z" fill="#7AB61F"/>
<path d="M268.929 82.8527C267.233 82.8527 265.972 81.562 265.972 79.2862C265.972 77.0104 267.233 75.7197 268.929 75.7197C270.634 75.7197 271.886 77.0104 271.886 79.2862C271.886 81.562 270.634 82.8527 268.929 82.8527ZM268.929 81.5029C269.727 81.5029 270.279 80.8527 270.279 79.2862C270.279 77.7197 269.727 77.0695 268.929 77.0695C268.14 77.0695 267.588 77.7197 267.588 79.2862C267.588 80.8527 268.14 81.5029 268.929 81.5029Z" fill="#7AB61F"/>
<path d="M256.352 81.434H259.319V82.7344H254.104V81.7L256.766 79.1877C257.377 78.6064 257.485 78.2517 257.485 77.9168C257.485 77.3749 257.111 77.0596 256.381 77.0596C255.79 77.0596 255.287 77.2862 254.952 77.7493L253.789 77.0005C254.321 76.2222 255.287 75.7197 256.529 75.7197C258.067 75.7197 259.092 76.5079 259.092 77.7591C259.092 78.4291 258.905 79.0399 257.939 79.9364L256.352 81.434Z" fill="#7AB61F"/>
</svg>
