<svg width="138" height="38" viewBox="0 0 138 38" fill="none" xmlns="http://www.w3.org/2000/svg">
<path d="M0.00106611 1.16504H4.29237V18.0568C4.29237 19.6813 5.30466 19.6504 6.19321 19.6504H13.8873V23.6056H4.65931C2.23579 23.6056 0 22.6861 0 19.2525L0.00106611 1.16504Z" fill="#F3FAF9"/>
<path d="M16.522 1.16504H26.0561C32.4936 1.16504 33.8429 6.92505 33.8429 12.4717C33.8429 19.0626 31.5165 23.5992 26.0561 23.5992H16.522V1.16504ZM25.719 19.7762C28.5084 19.7762 29.5506 16.957 29.5506 12.4493C29.5506 6.43971 28.1105 4.96877 25.719 4.96877H20.8122V19.773L25.719 19.7762Z" fill="#F3FAF9"/>
<path d="M36.8148 1.16504H41.1679L50.0588 15.6653V1.16504H54.3501V23.6045H50.0588L41.1413 9.25891V23.6045H36.819L36.8148 1.16504Z" fill="#F3FAF9"/>
<path d="M64.3439 1.16504H69.2187L76.5149 23.6045H71.9483L70.3536 18.6381H62.9935L61.3689 23.6045H56.7704L64.3439 1.16504ZM69.3403 14.8376L66.8261 6.80557L64.1285 14.8376H69.3403Z" fill="#F3FAF9"/>
<path d="M86.1375 6.77506C86.1375 2.33026 88.7744 1.0428 92.207 0.981998C95.1247 0.910686 98.0397 1.20924 100.882 1.87053V5.24226C98.9207 5.05773 94.4748 4.93613 93.3719 4.93613C91.5019 4.9052 90.4288 5.0332 90.4288 7.1132V8.21826C90.4288 9.9964 91.1072 10.3644 92.8203 10.3644H96.3767C100.791 10.3644 101.68 13.8289 101.68 16.3111V17.814C101.68 22.9031 98.5218 23.8524 95.4871 23.8524C92.5661 23.9659 89.644 23.6562 86.8117 22.9329V19.5591C88.0384 19.6807 91.7771 19.8961 94.6294 19.8961C95.9169 19.8961 97.3879 19.6828 97.3879 17.9644V16.7697C97.3879 15.4823 97.021 14.6545 95.3612 14.6545H91.9275C86.4992 14.6545 86.1333 10.6695 86.1333 8.70786L86.1375 6.77506Z" fill="#E08B4F"/>
<path d="M111.768 0H116.213L107.598 25.8133H103.153L111.768 0Z" fill="#E08B4F"/>
<path d="M125.284 1.16504H130.158L137.454 23.6045H132.882L131.287 18.6381H123.927L122.303 23.6045H117.704L125.284 1.16504ZM130.281 14.8376L127.768 6.80557L125.071 14.8376H130.281Z" fill="#E08B4F"/>
<path d="M5.53506 29.0967H7.28977L9.91597 37.1735H8.26793L7.69405 35.3857H5.04971L4.46837 37.1735H2.80966L5.53506 29.0967ZM7.33457 34.0183L6.43001 31.1276L5.46039 34.0183H7.33457Z" fill="#918D8C"/>
<path d="M16.0964 29.0088C17.1418 28.9812 18.186 29.1004 19.1983 29.3629V30.5661C19.1322 30.5661 17.7199 30.3784 16.4623 30.3784C15.2366 30.3784 15.0083 31.1176 15.0083 33.1144C15.0083 35.2114 15.2505 35.7736 16.3876 35.781C16.8916 35.7612 17.3767 35.5836 17.7743 35.2733V33.828H16.6489V32.8455C17.2666 32.6375 17.918 32.5478 18.569 32.581C18.8004 32.581 19.0533 32.581 19.3157 32.6034V37.1719H18.2148L17.7956 36.6312C17.5649 36.8387 17.2952 36.9984 17.0022 37.1007C16.7092 37.2031 16.3987 37.2462 16.0889 37.2274C13.8051 37.3159 13.4627 35.3959 13.4627 33.0898C13.4585 30.741 13.9033 29.0088 16.0964 29.0088Z" fill="#918D8C"/>
<path d="M23.6667 30.7773C23.6456 30.545 23.6772 30.3109 23.7591 30.0925C23.841 29.8741 23.9711 29.677 24.1398 29.5159C24.3084 29.3547 24.5112 29.2337 24.7331 29.1618C24.955 29.0898 25.1903 29.0689 25.4214 29.1005C25.4214 29.1005 28.2684 29.1784 28.9735 29.2765V30.5565H25.7841C25.2102 30.5565 25.2102 30.8765 25.2102 31.1752V32.4349L28.4764 32.5416V33.8152L25.2102 33.9122V35.172C25.2102 35.7533 25.575 35.7458 25.895 35.7458H28.9735V37.0141C28.3441 37.1026 25.5302 37.2007 25.5302 37.2007C24.8134 37.2338 23.6656 37.0685 23.6656 35.5794L23.6667 30.7773ZM26.0134 26.8936H27.1612L28.2279 28.3869H27.2017L26.55 27.7245L25.8545 28.3869H24.8177L26.0134 26.8936Z" fill="#918D8C"/>
<path d="M33.2125 29.0967H34.7795L37.9796 34.3159V29.0967H39.522V37.1767H37.9806L34.772 32.013V37.1767H33.22L33.2125 29.0967Z" fill="#918D8C"/>
<path d="M46.4918 29.009C47.4417 28.9887 48.3892 29.1117 49.3025 29.3738V30.5876C49.2918 30.5876 47.935 30.4341 46.8491 30.4341C45.7131 30.4341 45.2832 30.6879 45.2832 33.137C45.2832 34.9503 45.5808 35.8186 46.8491 35.8186C48.0118 35.8186 49.3025 35.73 49.3025 35.73V36.9332C48.3881 37.1859 47.4392 37.2904 46.4918 37.2426C44.4501 37.2202 43.745 35.6767 43.745 33.1167C43.7408 30.5311 44.2922 29.009 46.4918 29.009Z" fill="#918D8C"/>
<path d="M53.5063 29.0967H55.0552V37.1767H53.5106L53.5063 29.0967Z" fill="#918D8C"/>
<path d="M61.8905 29.0967H63.6452L66.2714 37.1735H64.6234L64.0495 35.3857H61.4009L60.8238 37.1767H59.1694L61.8905 29.0967ZM63.6889 34.0183L62.7844 31.1276L61.8148 34.0183H63.6889Z" fill="#918D8C"/>
<path d="M76.3708 29.0967H79.8024C82.1192 29.0967 82.6046 31.1713 82.6046 33.1681C82.6046 35.5404 81.7662 37.1735 79.8024 37.1735H76.3708V29.0967ZM79.6776 35.7932C80.6814 35.7932 81.0568 34.7788 81.0568 33.1564C81.0568 30.9943 80.5385 30.4642 79.6776 30.4642H77.9122V35.7975L79.6776 35.7932Z" fill="#918D8C"/>
<path d="M86.9322 29.0967H88.4778V37.1767H86.9322V29.0967Z" fill="#918D8C"/>
<path d="M95.3185 29.0087C96.364 28.9813 97.4081 29.1005 98.4204 29.3629V30.5661C98.3543 30.5661 96.942 30.3783 95.6844 30.3783C94.4598 30.3783 94.2305 31.1175 94.2305 33.1143C94.2305 35.2114 94.4727 35.7735 95.6098 35.781C96.1138 35.7612 96.5988 35.5836 96.9965 35.2733V33.828H95.8711V32.8455C96.4888 32.6375 97.1402 32.5478 97.7911 32.581C98.0226 32.581 98.2754 32.581 98.5378 32.6034V37.1719H97.4349L97.0157 36.6311C96.785 36.8388 96.5152 36.9985 96.2222 37.1009C95.9292 37.2033 95.6187 37.2463 95.3089 37.2274C93.0251 37.3159 92.6827 35.3959 92.6827 33.0898C92.6817 30.741 93.1244 29.0087 95.3185 29.0087Z" fill="#918D8C"/>
<path d="M102.923 29.0967H104.469V37.1767H102.923V29.0967Z" fill="#918D8C"/>
<path d="M108.551 29.0967H114.524V30.5196H112.284V37.1767H110.74V30.5239H108.555L108.551 29.0967Z" fill="#918D8C"/>
<path d="M119.839 29.0967H121.593L124.219 37.1735H122.571L121.998 35.3857H119.354L118.773 37.1735H117.117L119.839 29.0967ZM121.638 34.0183L120.732 31.1276L119.763 34.0183H121.638Z" fill="#918D8C"/>
<path d="M128.305 29.0967H129.849V35.1767C129.849 35.758 130.214 35.7506 130.534 35.7506H133.308V37.1767H129.98C129.107 37.1767 128.303 36.846 128.303 35.6108L128.305 29.0967Z" fill="#918D8C"/>
</svg>
